<?xml version="1.0" encoding="UTF-8"?>
<svg xmlns="http://www.w3.org/2000/svg" viewBox="700 420 1600 1160">
<path fill-rule="nonzero" fill="#ffffff" d="M 1608.03125 882.734375 C 1608.03125 941.082031 1570.988281 990.941406 1519.183594 1010.03125 L 1519.183594 755.4375 C 1570.988281 774.53125 1608.03125 824.386719 1608.03125 882.734375 M 1336.808594 882.734375 C 1336.808594 825.527344 1372.433594 776.519531 1422.648438 756.628906 L 1422.648438 1008.84375 C 1372.433594 988.953125 1336.808594 939.941406 1336.808594 882.734375 M 1424.371094 465.140625 L 1424.371094 465.722656 L 1422.648438 465.722656 L 1422.648438 664.457031 C 1323.441406 687.144531 1249.175781 776.75 1249.175781 882.734375 C 1249.175781 988.722656 1323.441406 1078.324219 1422.648438 1101.011719 L 1422.648438 1233.542969 L 845.035156 1233.542969 L 845.035156 465.722656 L 750.222656 465.722656 L 750.222656 1299.855469 L 1570.976562 1299.855469 L 1570.976562 1534.859375 L 1665.792969 1534.859375 L 1665.792969 1233.542969 L 1519.183594 1233.542969 L 1519.183594 1101.011719 C 1619.902344 1079.457031 1695.664062 989.792969 1695.664062 882.734375 C 1695.664062 775.675781 1619.902344 686.015625 1519.183594 664.457031 L 1519.183594 532.035156 L 2154.964844 532.035156 L 2154.964844 1299.855469 L 2249.777344 1299.855469 L 2249.777344 465.140625 Z M 1424.371094 465.140625 "/>
</svg>
